<svg xmlns="http://www.w3.org/2000/svg" width="511" height="496" viewBox="0 0 511 496" version="1.1"><path d="M 139.234 11.750 C 134.696 17.124, 127.197 26.207, 115.500 40.498 C 111.100 45.874, 103.675 54.880, 99 60.512 C 90.623 70.603, 80.087 83.409, 68.674 97.372 C 59.719 108.328, 55.776 113.086, 52.447 116.953 C 50.768 118.904, 44.693 126.312, 38.947 133.416 C 33.201 140.520, 25.688 149.597, 22.250 153.587 C 13.819 163.374, 12.564 161.281, 35.488 175.663 C 42.645 180.153, 54.046 187.353, 60.824 191.663 C 67.603 195.974, 73.903 199.959, 74.824 200.520 C 77.601 202.211, 85.273 207.064, 89 209.487 C 92.808 211.962, 97.631 215.030, 123.730 231.576 C 133.207 237.584, 143.557 244.158, 146.730 246.184 C 149.904 248.211, 155.515 251.705, 159.200 253.950 C 167.374 258.927, 167.754 259.477, 164.243 261.229 C 161.008 262.843, 140.259 274.622, 124.667 283.695 C 118.708 287.163, 113.611 290, 113.339 290 C 113.068 290, 107.453 293.150, 100.861 297 C 94.269 300.850, 88.705 304, 88.496 304 C 88.287 304, 83.113 306.925, 77 310.500 C 70.887 314.075, 65.636 317, 65.331 317 C 65.027 317, 61.115 319.203, 56.639 321.896 C 52.162 324.589, 45.800 328.239, 42.500 330.008 C 29.644 336.899, 16 345.232, 16 346.192 C 16 346.746, 18.997 352.667, 22.661 359.350 C 30.196 373.096, 33.035 378.330, 36.844 385.500 C 38.305 388.250, 39.725 390.725, 40 391.001 C 40.275 391.276, 41.290 393.005, 42.256 394.842 C 44.602 399.306, 52.570 414.163, 56.284 421 C 57.927 424.025, 60.857 429.425, 62.795 433 C 64.733 436.575, 67.299 441.300, 68.497 443.500 C 69.695 445.700, 72.610 451.100, 74.975 455.500 C 77.339 459.900, 79.606 463.950, 80.011 464.500 C 80.942 465.762, 88.754 480.244, 91.238 485.313 C 94.212 491.380, 93.125 492.338, 171.562 414.500 C 249.069 337.584, 248.110 338.468, 250.068 342.127 C 250.729 343.363, 251.672 344.852, 252.163 345.437 C 252.654 346.022, 259.411 356.175, 267.179 368 C 274.947 379.825, 282.922 391.901, 284.901 394.835 C 290.366 402.937, 291.871 405.294, 293.150 407.750 C 293.794 408.988, 294.666 410, 295.087 410 C 295.509 410, 295.999 410.563, 296.177 411.250 C 296.447 412.295, 320.320 448.634, 341.834 480.750 C 349.413 492.063, 345.997 493.753, 385.500 459.149 C 390.142 455.083, 405.153 442.078, 408.500 439.223 C 410.150 437.816, 413.324 435.052, 415.554 433.082 C 417.783 431.112, 421.158 428.187, 423.054 426.582 C 424.949 424.977, 428.318 422.052, 430.540 420.082 C 432.762 418.112, 437.228 414.250, 440.465 411.500 C 443.702 408.750, 446.843 406.050, 447.444 405.500 C 449.942 403.216, 457.816 396.325, 460.586 394 C 476.335 380.779, 478.958 378.278, 478.985 376.453 C 478.993 375.878, 445.308 349.553, 404.128 317.953 C 362.949 286.354, 329.761 260.222, 330.378 259.883 C 330.995 259.543, 335.100 258.546, 339.500 257.668 C 343.900 256.789, 351.775 255.134, 357 253.990 C 362.225 252.847, 368.525 251.505, 371 251.008 C 373.475 250.511, 380.900 248.937, 387.500 247.510 C 394.100 246.084, 401.525 244.505, 404 244.002 C 406.475 243.500, 412.775 242.149, 418 241 C 423.225 239.851, 429.525 238.505, 432 238.008 C 434.475 237.511, 441.900 235.937, 448.500 234.510 C 455.100 233.084, 462.525 231.504, 465 231 C 479.239 228.101, 493.303 224.931, 494.091 224.444 C 495.609 223.505, 495.253 222.519, 487.880 207.248 C 483.965 199.136, 478.164 187.100, 474.990 180.500 C 471.816 173.900, 465.785 161.392, 461.589 152.705 C 457.392 144.017, 451.667 132.092, 448.866 126.205 C 443.948 115.867, 436.971 101.375, 423.250 73 C 407.522 40.473, 403 30.861, 403 29.961 C 403 27.649, 399.367 29.365, 394.980 33.750 C 310.092 118.597, 249.138 179, 248.403 179 C 247.886 179, 235.997 159.618, 221.982 135.929 C 207.967 112.241, 195.509 91.203, 194.298 89.179 C 193.086 87.156, 191.773 84.825, 191.379 84 C 190.986 83.175, 189.389 80.619, 187.832 78.320 C 186.274 76.021, 185 73.852, 185 73.500 C 185 73.148, 183.736 70.979, 182.191 68.680 C 180.646 66.381, 171.773 51.563, 162.473 35.750 C 143.819 4.032, 144.852 5.098, 139.234 11.750" stroke="none" fill="#edd84f" fill-rule="evenodd"/></svg>